<?xml version="1.0" standalone="no"?>
<!DOCTYPE svg PUBLIC "-//W3C//DTD SVG 20010904//EN"
 "http://www.w3.org/TR/2001/REC-SVG-20010904/DTD/svg10.dtd">
<svg version="1.0" xmlns="http://www.w3.org/2000/svg"
 width="1024.000000pt" height="1024.000000pt" viewBox="0 0 1024.000000 1024.000000"
 preserveAspectRatio="xMidYMid meet">
<metadata>
Created by potrace 1.11, written by Peter Selinger 2001-2013
</metadata>
<g transform="translate(0.000000,1024.000000) scale(0.100000,-0.100000)"
fill="#000000" stroke="none">
<path d="M864 10225 c-349 -73 -665 -474 -794 -1010 -6 -27 -14 -59 -16 -70
-24 -131 -36 -214 -42 -285 -9 -119 -8 -7375 1 -7485 5 -49 10 -99 12 -110 3
-11 7 -36 9 -55 20 -139 62 -298 117 -445 34 -89 110 -248 121 -253 5 -2 8 -8
8 -14 0 -19 105 -161 173 -234 119 -128 236 -202 383 -244 68 -20 110 -20
4304 -17 3757 3 4240 5 4280 18 139 47 225 102 346 223 130 130 228 284 307
481 70 175 126 391 143 550 3 28 8 64 11 80 2 17 6 649 7 1405 l3 1375 -394 0
c-255 0 -393 -4 -394 -10 0 -5 -2 -345 -4 -755 -1 -410 -5 -765 -9 -790 -3
-25 -8 -72 -11 -105 -4 -33 -13 -89 -20 -125 -8 -37 -16 -77 -18 -90 -54 -289
-224 -632 -406 -818 -99 -100 -183 -157 -315 -211 -90 -37 -54 -37 -3541 -36
-2741 1 -3401 4 -3450 14 -74 16 -165 57 -242 108 -82 54 -255 230 -272 277
-2 6 -7 13 -11 16 -18 13 -108 177 -143 260 -8 19 -22 52 -31 72 -33 75 -95
292 -111 388 -3 19 -7 46 -10 60 -6 35 -15 102 -25 185 -4 39 -8 1197 -8 2575
0 1974 3 2524 13 2595 7 50 15 114 19 144 4 29 8 57 11 61 4 6 13 51 20 95 6
39 65 226 96 302 46 117 160 326 194 358 6 6 24 27 39 49 50 67 148 157 231
211 87 56 128 75 226 101 59 15 303 17 3444 18 3795 1 3465 8 3628 -73 102
-51 120 -65 232 -176 76 -76 140 -160 212 -280 95 -157 196 -463 229 -690 3
-22 7 -50 9 -61 15 -93 19 -297 20 -950 l0 -751 395 1 395 1 0 1335 c-1 1166
-5 1516 -20 1540 -2 3 -6 26 -10 51 -5 38 -25 143 -40 204 -46 194 -146 424
-252 582 -58 86 -184 224 -256 279 -53 40 -149 90 -227 116 l-65 22 -4220 2
c-3370 1 -4232 -1 -4281 -11z"/>
<path d="M2271 7995 c-10 -14 -8 -5841 2 -5851 4 -5 109 -8 232 -9 l225 0 0
100 c0 55 1 1054 1 2220 0 1166 4 2113 8 2105 5 -8 41 -105 80 -215 68 -187
103 -282 122 -330 4 -11 19 -54 34 -95 15 -41 33 -91 40 -110 24 -62 83 -224
100 -275 9 -27 21 -59 26 -70 9 -22 63 -170 109 -300 15 -44 32 -91 38 -105
11 -25 154 -417 188 -517 21 -60 2 -55 199 -55 69 0 133 0 143 1 23 1 20 -7
172 416 61 172 112 311 120 330 9 23 54 148 56 155 0 3 4 12 7 20 3 8 43 115
87 238 44 122 87 239 94 260 8 20 44 120 81 222 109 301 110 305 149 405 15
39 15 39 16 10 0 -16 1 -1014 1 -2217 0 -2040 1 -2186 17 -2190 9 -2 114 -3
232 -3 l215 1 0 2934 0 2935 -283 0 c-156 0 -288 -2 -292 -5 -10 -6 -49 -104
-56 -140 -3 -13 -9 -29 -13 -35 -4 -5 -20 -46 -35 -90 -15 -44 -32 -89 -36
-100 -5 -11 -86 -231 -180 -490 -95 -258 -187 -510 -205 -560 -19 -49 -90
-243 -158 -430 -69 -187 -129 -348 -133 -359 -6 -15 -11 -7 -27 35 -10 30 -41
113 -67 184 -26 72 -76 207 -110 300 -33 94 -65 179 -70 190 -5 11 -19 49 -31
85 -12 36 -26 69 -31 75 -4 5 -8 17 -8 27 0 10 -4 26 -10 36 -5 9 -37 94 -70
187 -34 94 -65 179 -70 190 -4 11 -13 36 -20 55 -7 19 -16 44 -20 55 -5 11
-41 110 -80 220 -39 110 -76 209 -80 220 -5 11 -32 83 -59 160 -28 77 -57 151
-64 165 l-12 24 -284 1 c-177 0 -285 -4 -290 -10z"/>
<path d="M6210 8000 c-7 -4 -122 -379 -135 -440 -2 -8 -4 -15 -5 -15 -1 0 -3
-7 -5 -15 -1 -8 -30 -107 -63 -220 -72 -248 -94 -322 -96 -335 -1 -5 -9 -32
-18 -60 -9 -27 -23 -75 -31 -105 -9 -30 -26 -89 -38 -130 -13 -41 -23 -77 -24
-80 -9 -32 -42 -146 -140 -485 -8 -27 -29 -97 -46 -155 -17 -58 -34 -118 -39
-135 -7 -29 -113 -392 -171 -589 l-29 -99 0 -1501 0 -1501 218 1 c119 1 224 2
232 3 14 1 15 100 15 869 -1 477 1 873 3 880 3 9 199 12 933 12 878 0 929 -1
930 -17 0 -10 1 -406 1 -880 1 -616 4 -863 12 -864 49 -4 440 -3 447 2 14 8 6
3005 -8 3049 -10 31 -130 445 -218 750 -18 63 -44 153 -58 200 -13 47 -27 94
-30 105 -3 11 -49 169 -102 350 -53 182 -98 337 -100 345 -2 8 -18 64 -35 123
-17 60 -33 116 -35 125 -6 23 -92 316 -111 377 -9 28 -18 57 -19 65 -12 49
-105 364 -110 369 -8 7 -1114 8 -1125 1z m641 -439 c29 -1 38 -5 42 -23 11
-47 26 -98 82 -288 86 -292 135 -463 139 -480 2 -8 6 -22 9 -30 6 -16 113
-383 127 -435 4 -16 33 -118 65 -225 32 -107 61 -208 65 -225 4 -16 20 -70 35
-120 14 -49 60 -207 102 -350 41 -143 100 -343 130 -445 l55 -185 0 -190 c0
-104 -1 -199 -1 -210 -1 -20 -7 -20 -918 -19 -505 1 -925 2 -933 3 -13 1 -15
31 -14 208 l1 208 67 230 c38 127 69 235 70 240 2 6 9 30 16 55 7 25 15 50 16
55 2 6 31 105 64 220 34 116 66 224 70 240 4 17 24 86 45 155 21 69 44 148 51
175 16 59 32 117 69 240 54 182 154 526 170 585 3 14 111 386 157 542 22 75
22 75 128 71 30 -1 71 -2 91 -2z"/>
</g>
</svg>
