<?xml version="1.0" standalone="no"?>
<!DOCTYPE svg PUBLIC "-//W3C//DTD SVG 20010904//EN"
 "http://www.w3.org/TR/2001/REC-SVG-20010904/DTD/svg10.dtd">
<svg version="1.0" xmlns="http://www.w3.org/2000/svg"
 width="1024.000000pt" height="1024.000000pt" viewBox="0 0 1024.000000 1024.000000"
 preserveAspectRatio="xMidYMid meet">
<metadata>
Created by potrace 1.11, written by Peter Selinger 2001-2013
</metadata>
<g transform="translate(0.000000,1024.000000) scale(0.100000,-0.100000)"
fill="#000000" stroke="none">
<path d="M3100 8038 c0 -5 -13 -7 -29 -6 -16 1 -35 -3 -43 -9 -7 -6 -21 -9
-30 -8 -10 2 -18 -1 -18 -5 0 -5 -8 -8 -17 -8 -10 1 -34 -5 -53 -14 -41 -19
-73 -30 -79 -28 -2 1 -7 -2 -10 -7 -3 -4 -31 -20 -61 -35 -71 -36 -90 -48
-117 -76 -12 -12 -25 -21 -27 -20 -3 2 -44 -36 -93 -84 -104 -104 -113 -114
-113 -127 0 -6 -9 -15 -20 -21 -11 -6 -20 -17 -20 -25 0 -8 -6 -18 -14 -22
-14 -8 -16 -12 -16 -34 0 -5 -5 -7 -10 -4 -6 4 -10 3 -9 -2 4 -15 -13 -63 -22
-63 -5 0 -8 -3 -7 -7 0 -5 -6 -24 -15 -43 -8 -19 -13 -38 -11 -41 2 -4 -5 -14
-15 -23 -11 -10 -17 -25 -14 -37 3 -10 0 -26 -7 -34 -6 -8 -9 -19 -6 -24 4 -5
2 -12 -4 -16 -5 -3 -10 -22 -10 -41 0 -19 -3 -34 -8 -34 -4 0 -8 -909 -8
-2020 0 -1111 4 -2020 8 -2020 5 0 8 -15 8 -33 0 -19 3 -37 7 -41 7 -6 12 -32
16 -73 1 -13 5 -23 10 -23 4 0 7 -7 7 -15 0 -8 5 -15 11 -15 7 0 9 -9 6 -21
-3 -12 0 -22 9 -26 8 -3 13 -12 10 -19 -3 -8 -1 -14 5 -14 6 0 7 -5 4 -10 -3
-6 0 -13 9 -16 8 -3 12 -12 9 -20 -3 -8 0 -14 7 -14 6 0 8 -5 5 -10 -3 -6 0
-13 8 -16 9 -3 21 -20 28 -37 7 -18 23 -42 36 -54 14 -12 25 -25 25 -30 1 -18
11 -33 22 -33 6 -1 25 -19 41 -40 17 -22 37 -42 45 -45 8 -3 26 -21 40 -40 14
-19 30 -35 37 -35 7 0 22 -10 35 -23 13 -12 37 -29 53 -37 17 -8 33 -19 37
-25 4 -5 11 -10 15 -11 4 0 33 -12 63 -26 59 -29 89 -41 105 -43 6 -1 21 -7
35 -12 14 -6 28 -9 33 -6 4 2 7 -1 7 -7 0 -6 8 -10 18 -9 9 1 24 -1 32 -4 8
-3 31 -8 50 -12 51 -9 2961 -12 2966 -3 3 4 20 8 39 8 19 0 36 4 40 10 3 5 12
7 20 3 8 -3 15 0 15 7 0 7 7 10 15 6 8 -3 15 -2 15 2 0 5 18 16 39 25 22 10
55 29 75 42 20 13 36 22 36 20 0 -3 353 348 785 780 432 432 785 791 785 799
0 8 7 17 16 20 8 3 12 10 9 16 -3 5 -2 10 2 10 9 0 37 59 34 73 -1 4 5 10 13
13 8 3 12 12 9 20 -3 8 -1 14 4 14 5 0 10 6 11 13 8 56 15 87 21 87 9 0 8
2947 -1 2956 -5 4 -8 22 -8 40 0 18 -4 35 -9 38 -5 4 -8 14 -6 24 1 9 -2 23
-8 30 -5 6 -6 12 -3 12 4 0 1 10 -6 23 -7 12 -13 27 -13 32 -2 17 -14 47 -51
120 -46 95 -65 125 -93 152 -13 13 -20 23 -15 23 5 0 -38 47 -96 105 -57 57
-106 103 -108 100 -2 -2 -14 6 -26 19 -21 22 -54 41 -68 38 -5 -1 -8 2 -8 7 0
5 -21 20 -47 33 -27 13 -51 27 -55 33 -4 5 -8 7 -8 2 0 -4 -11 0 -25 9 -14 9
-25 13 -25 9 0 -4 -7 -2 -15 5 -8 7 -15 10 -15 6 0 -4 -10 0 -23 9 -13 8 -27
12 -30 9 -4 -4 -13 -2 -20 5 -8 6 -36 14 -63 17 -27 3 -56 8 -64 12 -23 9
-4030 9 -4030 0z m3540 -1290 c0 -5 4 -6 10 -3 5 3 24 -2 42 -12 18 -9 35 -17
38 -18 15 -1 62 -59 88 -107 23 -43 28 -64 27 -113 -1 -33 -5 -68 -8 -77 -11
-27 -18 -53 -17 -56 2 -6 -100 -102 -110 -102 -5 0 -10 -4 -10 -10 0 -5 -7 -7
-15 -4 -8 4 -15 1 -15 -5 0 -6 -19 -11 -45 -11 -25 0 -45 -3 -45 -7 0 -11
-2902 -9 -2919 1 -8 5 -31 8 -53 8 -21 -1 -38 2 -38 7 0 5 -12 12 -26 15 -25
7 -119 91 -119 107 0 4 -3 11 -7 15 -5 4 -8 16 -8 26 0 10 -4 18 -8 18 -10 0
-8 115 2 153 5 15 12 27 17 27 5 0 8 3 8 8 -3 19 4 32 39 70 22 23 42 39 45
35 4 -3 7 -1 7 5 0 7 9 12 19 12 11 0 23 5 26 10 4 6 10 8 15 5 5 -3 11 -1 14
3 7 12 3046 11 3046 0z m-64 -1270 c6 -4 27 -7 45 -6 46 1 105 -31 157 -86 24
-25 39 -46 35 -46 -4 0 -2 -4 4 -8 7 -4 14 -17 16 -27 1 -11 5 -24 8 -30 8
-14 3 -125 -6 -152 -4 -13 -11 -23 -16 -23 -5 0 -8 -3 -7 -7 6 -22 -56 -98
-72 -88 -6 4 -10 1 -10 -4 0 -6 -21 -21 -47 -34 l-48 -22 -1510 0 c-1235 1
-1518 4 -1552 15 -24 7 -43 17 -43 22 0 4 -7 8 -15 8 -18 0 -96 81 -94 97 2
14 -13 53 -21 53 -9 0 -6 114 5 158 8 35 100 142 121 142 8 0 14 5 14 12 0 6
3 8 7 5 3 -4 12 -2 18 3 7 6 31 11 54 12 23 1 44 4 46 7 5 9 2898 7 2911 -1z
m919 -1460 c3 -3 -282 -294 -635 -646 -352 -353 -640 -640 -641 -639 -6 12 -3
907 3 920 5 9 9 37 10 62 0 25 5 45 10 45 5 0 7 4 3 9 -3 5 -1 12 5 16 5 3 10
13 10 21 0 31 93 137 129 149 12 3 21 11 21 16 0 5 9 9 20 9 11 0 20 4 20 10
0 5 7 7 15 4 8 -4 15 -2 15 4 0 5 10 9 23 8 12 -1 38 3 58 9 39 11 923 14 934
3z"/>
</g>
</svg>
