<?xml version="1.0" standalone="no"?>
<!DOCTYPE svg PUBLIC "-//W3C//DTD SVG 20010904//EN"
 "http://www.w3.org/TR/2001/REC-SVG-20010904/DTD/svg10.dtd">
<svg version="1.0" xmlns="http://www.w3.org/2000/svg"
 width="1024.000000pt" height="1024.000000pt" viewBox="0 0 1024.000000 1024.000000"
 preserveAspectRatio="xMidYMid meet">
<metadata>
Created by potrace 1.11, written by Peter Selinger 2001-2013
</metadata>
<g transform="translate(0.000000,1024.000000) scale(0.100000,-0.100000)"
fill="#000000" stroke="none">
<path d="M2280 9500 c-8 -4 -26 -6 -40 -5 -14 1 -33 -2 -43 -7 -10 -5 -31 -10
-48 -10 -16 -1 -29 -5 -29 -9 0 -4 -16 -6 -35 -4 -19 2 -35 -1 -35 -6 0 -5
-11 -9 -25 -9 -14 0 -25 -4 -25 -9 0 -6 -9 -8 -20 -6 -11 2 -20 0 -20 -4 0 -5
-15 -12 -32 -16 -18 -4 -35 -8 -38 -9 -3 -1 -11 -5 -17 -9 -7 -5 -13 -6 -13
-2 0 3 -10 0 -22 -7 -13 -7 -26 -11 -30 -10 -5 1 -8 -3 -8 -10 0 -6 -3 -8 -6
-5 -4 4 -19 -2 -33 -12 -14 -10 -29 -19 -34 -20 -7 -1 -113 -56 -177 -92 -15
-8 -47 -31 -69 -50 -23 -19 -45 -34 -49 -34 -5 0 -20 -12 -35 -27 -16 -16 -31
-28 -35 -28 -4 0 -33 -25 -64 -55 -31 -30 -55 -55 -52 -55 3 0 -18 -19 -45
-42 -27 -24 -53 -51 -56 -61 -4 -10 -21 -32 -37 -48 -17 -16 -28 -29 -24 -29
4 0 -4 -15 -18 -32 -15 -18 -30 -38 -34 -43 -23 -28 -43 -65 -37 -65 4 0 -3
-9 -16 -20 -13 -10 -20 -19 -16 -20 5 0 -1 -13 -12 -29 -11 -15 -18 -31 -14
-35 3 -3 1 -6 -6 -6 -7 0 -11 -5 -9 -12 3 -7 -3 -20 -11 -30 -9 -10 -16 -22
-17 -26 0 -4 -10 -27 -21 -52 -20 -41 -28 -61 -32 -82 -1 -4 -10 -28 -21 -53
-11 -25 -17 -45 -15 -45 2 0 -4 -19 -13 -42 -10 -24 -17 -55 -16 -70 2 -16 -1
-28 -7 -28 -5 0 -9 -18 -9 -40 0 -22 -4 -40 -8 -40 -5 0 -7 -18 -6 -40 1 -22
-2 -40 -6 -40 -7 0 -5 -5619 2 -5727 2 -24 7 -43 13 -43 6 0 10 -16 9 -35 -1
-19 2 -37 6 -40 4 -3 6 -18 5 -35 -1 -16 1 -30 6 -30 5 0 9 -11 9 -25 0 -14 4
-25 9 -25 6 0 8 -9 6 -20 -2 -11 -1 -20 4 -20 6 0 34 -81 36 -106 0 -6 5 -18
12 -25 6 -8 12 -17 12 -22 0 -4 13 -31 28 -60 15 -28 27 -54 28 -57 4 -20 57
-110 65 -110 6 0 10 -3 9 -7 -2 -14 13 -53 21 -53 4 0 15 -16 26 -35 10 -19
25 -35 32 -35 7 0 10 -4 7 -10 -3 -5 5 -21 19 -35 14 -14 29 -32 34 -41 12
-21 213 -224 222 -224 4 0 19 -10 33 -22 62 -55 80 -68 85 -64 2 3 13 -6 24
-19 11 -14 26 -25 33 -25 7 0 27 -11 44 -26 16 -14 33 -25 36 -24 10 1 210
-102 213 -110 2 -4 12 -6 22 -3 12 3 20 0 20 -6 0 -7 6 -11 13 -10 17 3 69
-12 85 -24 6 -5 12 -7 12 -4 0 3 23 -3 51 -14 29 -10 56 -16 61 -13 5 3 14 2
21 -3 7 -5 25 -10 40 -11 16 -1 34 -5 40 -9 7 -4 28 -8 47 -8 19 0 40 -3 45
-7 15 -9 5675 -8 5675 1 0 4 17 7 38 7 20 -1 46 4 57 10 11 7 29 10 40 8 10
-1 24 1 30 6 6 5 20 8 30 6 11 -2 29 0 40 5 42 16 60 22 67 23 3 1 10 4 14 9
4 4 18 7 31 7 13 0 23 4 23 8 0 5 6 9 13 10 40 5 57 11 107 37 30 16 59 28 63
27 4 -1 10 4 13 12 3 8 12 12 20 9 8 -3 14 0 14 6 0 6 3 10 8 9 12 -3 92 42
92 52 0 5 7 7 15 4 8 -4 15 -1 15 5 0 6 5 11 11 11 7 0 22 11 35 26 13 14 24
22 24 18 0 -4 11 3 25 16 14 13 25 19 25 14 0 -5 13 6 29 24 16 17 33 32 38
32 13 0 215 205 230 235 8 14 18 25 22 25 9 0 49 59 63 93 4 9 12 17 17 17 5
0 16 12 24 28 8 15 36 68 62 117 26 50 54 104 63 120 9 17 16 33 17 37 0 3 3
10 7 14 5 4 8 16 8 26 0 10 5 18 10 18 6 0 10 6 9 13 -3 22 13 77 23 77 6 0 8
7 5 15 -4 8 -2 17 3 20 6 4 10 17 10 30 0 13 4 26 9 30 6 3 8 15 6 27 -3 12 0
27 6 34 5 6 9 16 7 20 -1 5 2 27 6 49 5 22 11 54 14 70 7 45 12 5678 5 5695
-3 8 -7 31 -8 50 0 19 -6 44 -12 55 -5 11 -8 26 -6 33 3 7 1 18 -4 25 -5 7 -8
27 -8 45 1 17 -2 32 -7 32 -4 0 -8 9 -8 19 0 11 -4 22 -9 26 -6 3 -8 14 -6 25
2 11 -1 20 -7 20 -5 0 -8 6 -5 14 3 8 0 20 -8 26 -8 6 -12 17 -9 25 3 7 1 16
-5 20 -6 3 -11 17 -11 31 0 13 -5 24 -12 24 -6 0 -8 3 -5 6 4 4 -2 19 -13 34
-11 15 -17 30 -13 34 3 3 1 6 -6 6 -7 0 -11 6 -8 14 3 8 -1 17 -9 20 -9 3 -13
10 -10 14 3 5 -3 18 -13 28 -9 11 -16 25 -13 32 2 6 -2 12 -9 12 -7 0 -10 3
-6 6 3 4 -5 21 -18 39 -14 17 -25 37 -25 43 0 6 -12 20 -26 31 -15 12 -23 21
-19 21 5 0 -1 10 -13 23 -12 13 -20 26 -17 29 3 3 -8 15 -25 28 -16 13 -30 29
-30 35 0 14 -199 213 -228 229 -9 5 -24 17 -32 25 -15 17 -59 47 -72 50 -4 1
-18 11 -32 24 -39 36 -51 44 -74 51 -13 4 -19 12 -16 18 4 7 2 8 -5 4 -6 -4
-25 2 -41 14 -17 12 -30 18 -30 15 0 -3 -13 3 -30 15 -16 12 -30 18 -30 13 0
-4 -4 -3 -8 2 -12 16 -73 46 -83 39 -5 -3 -9 0 -9 5 0 6 -9 11 -20 11 -11 0
-20 5 -20 12 0 6 -3 9 -6 5 -3 -3 -30 3 -60 13 -30 11 -54 16 -54 12 0 -3 -5
-1 -12 6 -7 7 -20 12 -30 12 -10 0 -18 4 -18 8 0 4 -15 8 -32 9 -18 1 -55 7
-83 13 -27 7 -66 14 -85 17 -57 9 -5694 12 -5710 3z m4990 -1242 c0 -5 13 -8
29 -8 17 0 32 -4 36 -10 3 -5 12 -7 20 -3 8 3 15 0 15 -6 0 -6 9 -11 20 -11
11 0 20 -5 20 -11 0 -5 5 -7 10 -4 6 3 10 3 10 -2 0 -4 14 -14 30 -21 17 -8
58 -42 93 -76 64 -64 83 -89 93 -118 4 -10 10 -18 15 -18 5 0 8 -3 7 -7 -1 -5
4 -21 11 -38 7 -16 13 -38 14 -47 1 -10 5 -18 9 -18 4 0 8 -22 8 -49 0 -28 3
-52 8 -54 9 -7 9 -5273 -1 -5283 -4 -4 -7 -27 -7 -51 0 -25 -5 -43 -11 -43 -6
0 -9 -7 -6 -15 4 -8 2 -17 -2 -19 -5 -3 -11 -18 -14 -33 -3 -16 -21 -50 -39
-78 -36 -54 -143 -167 -150 -159 -3 2 -11 -2 -18 -11 -7 -8 -19 -15 -26 -15
-8 0 -14 -5 -14 -11 0 -6 -7 -9 -15 -5 -9 3 -15 0 -15 -9 0 -9 -6 -12 -15 -9
-8 4 -15 1 -15 -5 0 -7 -6 -11 -12 -10 -7 1 -20 0 -28 -4 -8 -3 -28 -9 -45
-13 -39 -10 -4315 -11 -4315 -2 0 5 -13 8 -29 8 -17 0 -32 4 -36 10 -3 5 -12
7 -20 3 -8 -3 -15 -1 -15 5 0 6 -13 13 -30 17 -16 4 -30 11 -30 16 0 5 -6 9
-13 9 -7 0 -19 6 -25 13 -7 6 -16 12 -20 12 -21 0 -162 161 -162 185 0 5 -4
10 -10 10 -5 0 -12 16 -16 35 -3 19 -10 38 -15 40 -4 3 -6 14 -4 25 2 12 0 18
-5 15 -4 -3 -11 19 -14 48 -3 28 -7 984 -9 2122 -4 2143 -4 2130 33 2143 6 2
10 8 10 14 0 6 26 36 58 67 31 31 68 73 82 93 13 20 27 35 31 33 3 -3 12 6 18
18 7 12 30 36 51 52 21 17 36 33 33 37 -2 5 32 44 75 87 44 44 77 82 75 85 -3
2 4 11 16 18 12 7 21 16 21 20 0 4 25 30 55 59 30 28 55 56 55 61 0 6 33 43
74 83 41 40 73 75 70 77 -2 3 21 28 51 57 30 29 55 53 55 55 0 6 67 80 128
142 34 35 62 67 62 71 0 5 34 41 75 82 41 41 73 76 71 78 -2 3 29 38 70 79 41
40 74 76 74 80 0 3 25 32 55 63 l54 56 1651 0 c907 0 1650 -3 1650 -7z"/>
<path d="M4169 8002 c-13 -2 -15 -92 -15 -702 1 -385 -2 -700 -6 -700 -5 0 -8
-9 -8 -20 0 -25 -46 -70 -71 -70 -11 0 -19 -3 -19 -8 0 -4 -286 -7 -636 -7
l-635 0 1 -75 c1 -41 1 -79 0 -85 -1 -5 -2 -23 -2 -40 1 -155 3 -432 2 -440
-4 -37 1 -459 5 -465 3 -5 2 -11 -3 -14 -5 -3 -7 -20 -6 -38 3 -31 6 -422 4
-443 -4 -37 1 -459 5 -465 3 -5 2 -11 -3 -14 -5 -3 -7 -20 -6 -38 3 -31 6
-422 4 -443 -4 -37 1 -459 5 -465 3 -5 2 -11 -3 -14 -5 -3 -7 -20 -6 -38 3
-31 6 -422 4 -443 -5 -53 2 -511 8 -519 5 -6 7 -21 6 -34 0 -12 3 -22 7 -22 5
0 9 -6 9 -14 0 -7 7 -19 15 -26 8 -7 13 -15 12 -19 -2 -3 7 -16 20 -28 13 -12
23 -19 23 -16 0 4 10 -3 23 -15 13 -12 27 -19 30 -15 4 3 7 1 7 -5 0 -7 7 -12
15 -12 8 0 15 -3 15 -7 0 -5 968 -8 2150 -8 1183 0 2150 3 2150 8 0 4 7 7 15
7 8 0 15 3 15 8 0 7 28 24 60 37 8 3 25 22 38 41 12 18 27 34 32 34 5 0 7 7 4
15 -4 8 0 23 7 32 11 12 15 61 16 192 2 97 3 178 4 181 3 26 -2 454 -6 460 -3
5 -2 11 3 14 5 3 7 20 6 38 -3 31 -6 422 -4 443 4 37 -1 459 -5 465 -3 5 -2
11 3 14 5 3 7 20 6 38 -3 30 -6 420 -4 443 4 46 -1 779 -5 785 -3 5 -2 11 3
14 5 3 7 20 6 38 -3 31 -6 422 -4 443 4 37 -1 459 -5 465 -3 5 -2 11 3 14 5 3
7 20 6 38 -3 31 -6 422 -4 443 2 14 0 454 -1 463 -1 4 -1 12 1 17 1 6 1 85 0
177 -1 130 -5 178 -18 215 -19 54 -53 113 -63 113 -4 0 -21 12 -38 26 -17 14
-31 23 -31 20 0 -4 -12 1 -26 11 -25 16 -130 17 -1563 17 -846 1 -1544 0
-1552 -2z m991 -289 c14 -6 31 -8 38 -6 6 3 12 0 12 -6 0 -6 3 -10 8 -9 26 5
148 -105 136 -123 -3 -5 -1 -9 4 -9 11 0 24 -50 26 -105 2 -44 -26 -134 -47
-150 -8 -5 -15 -14 -16 -20 -2 -5 -6 -15 -9 -21 -10 -15 -104 -69 -122 -69 -8
0 -20 -3 -25 -7 -10 -6 -48 -4 -105 5 -41 6 -80 26 -86 42 -3 8 -10 13 -14 10
-12 -7 -76 76 -72 93 2 8 -1 11 -7 8 -22 -14 -35 142 -15 184 7 14 14 31 16
39 7 33 116 128 141 123 4 -1 7 3 7 8 0 6 13 10 29 10 17 0 32 4 35 8 6 10 32
8 66 -5z m1885 -408 c22 -4 46 -12 53 -18 6 -5 12 -6 12 -1 0 4 9 -2 20 -14
11 -12 20 -26 20 -32 0 -5 4 -10 9 -10 4 0 8 -205 8 -457 0 -350 -3 -462 -12
-481 -15 -27 -66 -62 -94 -62 -10 0 -21 -3 -25 -7 -12 -13 -1086 -9 -1097 3
-5 6 -20 9 -34 6 -14 -2 -25 0 -25 5 0 5 -12 15 -26 21 -14 7 -22 17 -19 22 3
6 1 10 -6 10 -7 0 -9 3 -6 6 3 4 1 16 -5 28 -16 29 -16 853 0 882 6 12 8 24 5
28 -3 3 -1 6 6 6 7 0 11 6 8 14 -5 13 18 31 36 28 4 -1 7 3 7 8 0 6 13 10 29
10 17 0 32 3 34 8 7 9 1051 7 1102 -3z m25 -1377 c0 -6 6 -8 13 -5 32 12 85
-63 83 -118 -2 -47 -24 -95 -43 -95 -7 0 -13 -4 -13 -10 0 -5 -7 -10 -15 -10
-8 0 -15 -3 -15 -7 0 -10 -3898 -8 -3927 2 -13 4 -23 12 -23 17 0 5 -5 6 -11
3 -6 -4 -13 2 -16 14 -3 12 -10 21 -15 21 -5 0 -7 4 -3 9 3 5 0 13 -6 16 -37
23 29 166 74 159 9 -1 19 1 22 6 8 12 3895 10 3895 -2z m32 -971 c9 -10 22
-16 27 -12 6 3 11 -2 11 -14 0 -10 6 -21 13 -23 14 -5 19 -108 5 -108 -5 0 -7
-4 -4 -9 6 -9 -40 -60 -55 -62 -5 -1 -13 -2 -18 -3 -5 0 -13 -4 -17 -8 -11
-12 -3882 -10 -3888 1 -4 5 -14 8 -23 7 -51 -8 -107 128 -71 172 6 7 8 15 5
19 -7 7 32 40 61 50 12 5 902 8 1979 8 1894 0 1959 0 1975 -18z m-57 -941 c60
-15 94 -36 112 -71 13 -23 13 -115 1 -115 -4 0 -8 -6 -8 -14 0 -8 -13 -23 -30
-33 -16 -9 -30 -20 -30 -23 0 -3 -21 -4 -47 -2 -59 3 -47 3 -173 3 -58 -1
-112 -1 -120 0 -8 0 -68 -1 -133 -2 -65 -1 -120 1 -124 4 -3 4 -14 2 -24 -4
-13 -7 -19 -6 -19 1 0 6 -4 9 -10 5 -7 -4 -165 -7 -250 -4 -8 0 -62 0 -120 0
-58 -1 -112 -1 -120 0 -8 0 -62 0 -120 0 -58 -1 -112 -1 -120 0 -8 0 -62 0
-120 0 -58 -1 -112 -1 -120 0 -8 0 -67 -1 -131 -2 -64 -1 -122 1 -128 5 -6 4
-16 4 -22 0 -9 -5 -99 -7 -204 -3 -5 0 -57 0 -115 0 -58 -1 -112 -1 -120 0 -8
0 -62 0 -120 0 -58 -1 -112 -1 -120 0 -8 0 -62 0 -120 0 -58 -1 -112 -1 -120
0 -8 0 -62 0 -120 0 -58 -1 -112 -1 -120 0 -8 0 -62 0 -120 0 -58 -1 -112 -1
-120 0 -8 0 -62 0 -120 0 -58 -1 -112 -1 -120 0 -8 0 -67 -1 -131 -2 -64 -1
-122 1 -128 5 -6 4 -16 4 -23 0 -16 -10 -110 -5 -124 7 -6 5 -13 6 -16 3 -3
-3 -16 10 -29 28 -46 63 -26 168 37 197 15 6 29 10 31 7 3 -2 17 1 32 7 21 9
500 12 1922 11 1042 -1 1908 -4 1924 -8z m59 -838 c25 -14 62 -48 52 -48 -5 0
-4 -6 3 -13 13 -17 11 -84 -3 -113 -12 -22 -47 -61 -53 -57 -3 3 -15 0 -58
-13 -36 -11 -3805 -11 -3850 0 -91 22 -126 59 -124 128 1 24 6 49 12 56 5 6 6
12 2 12 -4 0 7 13 26 29 l34 30 1969 0 c1385 0 1976 -3 1990 -11z"/>
<path d="M6103 7052 l-33 -3 0 -285 0 -284 28 -1 c15 -1 31 -1 36 0 26 5 167
3 172 -2 4 -4 15 -2 25 4 11 5 19 6 19 2 0 -4 24 -7 52 -6 29 1 87 2 128 3
133 0 143 1 152 6 4 3 8 0 8 -6 0 -6 5 -8 11 -4 14 8 153 9 167 0 6 -3 16 0
24 7 10 11 13 70 12 283 -1 148 -2 274 -3 279 -1 9 -711 15 -798 7z"/>
<path d="M3860 7769 c0 -6 -34 -44 -75 -85 -41 -41 -72 -74 -68 -74 4 0 -30
-39 -76 -87 -45 -49 -108 -116 -139 -151 -31 -35 -67 -74 -79 -88 -12 -13 -21
-24 -19 -24 1 0 -22 -26 -53 -58 -49 -51 -160 -172 -199 -217 -7 -8 -10 -15
-5 -15 4 0 -4 -8 -20 -18 -15 -10 -24 -22 -20 -25 3 -4 -1 -7 -10 -7 -9 0 -17
-4 -17 -8 0 -5 -15 -25 -32 -45 -83 -91 -97 -107 -90 -108 37 -4 923 -1 928 3
3 4 8 894 4 1006 0 15 -30 16 -30 1z"/>
</g>
</svg>
